<svg width="52" height="48" viewBox="0 0 52 48" fill="none" xmlns="http://www.w3.org/2000/svg">
<g clip-path="url(#clip0_111_6264)">
<path d="M13 31H14.425L24.2 21.225L22.775 19.8L13 29.575V31ZM11 33V28.75L24.2 15.575C24.4 15.3917 24.6208 15.25 24.8625 15.15C25.1042 15.05 25.3583 15 25.625 15C25.8917 15 26.15 15.05 26.4 15.15C26.65 15.25 26.8667 15.4 27.05 15.6L28.425 17C28.625 17.1833 28.7708 17.4 28.8625 17.65C28.9542 17.9 29 18.15 29 18.4C29 18.6667 28.9542 18.9208 28.8625 19.1625C28.7708 19.4042 28.625 19.625 28.425 19.825L15.25 33H11ZM23.475 20.525L22.775 19.8L24.2 21.225L23.475 20.525Z" fill="#49454F"/>
</g>
<defs>
<clipPath id="clip0_111_6264">
<rect y="4" width="40" height="40" rx="20" fill="white"/>
</clipPath>
</defs>
</svg>
