<svg width="48" height="48" viewBox="0 0 48 48" fill="none" xmlns="http://www.w3.org/2000/svg">
<g clip-path="url(#clip0_126_2540)">
<path d="M23 33C22.45 33 21.9792 32.8042 21.5875 32.4125C21.1958 32.0208 21 31.55 21 31V18H20V16H25V15H31V16H36V18H35V31C35 31.55 34.8042 32.0208 34.4125 32.4125C34.0208 32.8042 33.55 33 33 33H23ZM33 18H23V31H33V18ZM25 29H27V20H25V29ZM29 29H31V20H29V29Z" fill="#49454F"/>
</g>
<defs>
<clipPath id="clip0_126_2540">
<rect x="8" y="4" width="40" height="40" rx="20" fill="white"/>
</clipPath>
</defs>
</svg>
